<svg width="121" height="141" viewBox="0 0 121 141" fill="none" xmlns="http://www.w3.org/2000/svg">
<g filter="url(#filter0_d_10_21)">
<path d="M52.9711 80.1759C47.8519 82.3905 41.9292 93.2849 47.3137 106.731M54.0055 79.6064C57.8727 77.1908 63.9069 71.5396 62.5322 64.6232M62.7531 64.306C70.2414 61.8412 74.305 58.7219 75.6588 57.2037M62.5357 64.1283C62.9455 61.7211 62.4939 55.6945 57.6654 48.5775M41.0768 60.9528C44.7156 59.8312 53.8002 56.7402 57.3877 48.5886M16.2337 38.8056C21.6676 50.6865 37.9666 61.7616 40.7308 61.0578M62.484 64.3938C58.8665 64.9458 50.2988 65.1807 42.9399 62.138M46.829 106.143C40.9693 98.8635 32.8328 82.3773 42.8363 62.3444C50.0997 65.3524 58.519 65.1882 62.2925 64.6583C63.0055 68.2483 61.6795 71.5027 59.6861 74.1379C57.6557 76.8221 54.9501 78.8394 53.0772 79.8755L52.8809 79.9511L52.8825 79.955C50.2254 81.0934 47.4164 84.4584 45.9582 89.2022C44.5538 93.771 44.3902 99.6498 46.829 106.143ZM48.0125 107.773C47.9477 107.627 47.8843 107.481 47.8222 107.336C44.8683 100.409 44.9563 94.1364 46.4276 89.3499C47.8579 84.6969 50.5825 81.4811 53.057 80.3981C54.7158 84.8215 55.9189 96.0882 48.0125 107.773ZM41.367 61.1103C45.1134 59.9434 53.9446 56.8221 57.5502 48.8283C62.3423 55.9577 62.7027 61.9417 62.2754 64.1881C58.5581 64.724 50.0466 64.9035 42.804 61.8314C42.299 61.6172 41.8462 61.371 41.367 61.1103ZM57.2231 48.35C53.6238 56.7385 44.1352 59.774 40.6955 60.8225L40.6853 60.8256C40.6853 60.8257 40.6853 60.8256 40.6853 60.8257L40.6582 60.8332L40.6559 60.8339C40.6559 60.8339 40.6559 60.8339 40.6558 60.8339C40.5297 60.8654 40.3428 60.8679 40.0865 60.8248C39.8316 60.7819 39.5248 60.6968 39.17 60.5688C38.4604 60.3126 37.5802 59.8925 36.5762 59.326C34.5693 58.1938 32.0906 56.4903 29.5295 54.3888C24.4029 50.1821 18.9797 44.4081 16.3439 38.4696C14.8614 35.1295 14.2674 31.753 15.0854 28.5771C24.8181 26.8007 33.7378 29.4183 41.0407 33.6522C48.3282 37.8771 53.9928 43.7047 57.2231 48.35ZM39.014 61.0022C39.1594 61.0547 39.2995 61.1012 39.4339 61.1414C34.7322 62.2056 27.9699 62.4353 21.5729 59.9678C14.6165 57.2846 8.06027 51.4004 5.05337 39.8459L5.04717 39.8221L5.03598 39.7998C4.74777 39.2261 4.72983 38.8373 4.84405 38.5723C4.95825 38.3074 5.23202 38.1025 5.68415 37.9632C6.59768 37.6816 8.06471 37.7214 9.6491 37.8986C11.0645 38.057 12.5344 38.3197 13.7175 38.5311C13.8487 38.5546 13.9765 38.5774 14.1002 38.5994C14.7158 38.7088 15.2389 38.7985 15.5997 38.8388C15.7509 38.8557 15.8886 38.8658 15.9971 38.8614C18.7125 44.8183 24.13 50.5586 29.2196 54.7349C31.7989 56.8514 34.3023 58.5731 36.3405 59.7229C37.3589 60.2975 38.267 60.7326 39.014 61.0022ZM57.7705 48.3132C61.5547 38.8616 67.4824 35.5226 73.3284 35.1409C79.2259 34.7558 85.1012 37.3758 88.7108 39.9232L88.7481 39.9496L88.7923 39.9617L98.7276 42.699L86.7085 40.4314L86.6544 40.4212L86.602 40.4337C82.8518 41.3294 75.4973 45.8664 75.655 56.83C74.5754 58.1873 70.5732 61.4606 62.7981 64.042C63.1828 61.4692 62.6325 55.4076 57.7705 48.3132ZM60.0869 74.4196C62.1314 71.7168 63.5285 68.3239 62.7644 64.5512C69.9994 62.1816 74.0928 59.192 75.6546 57.5667C75.5094 63.9816 71.6109 69.1958 67.0144 72.9563C62.5526 76.6066 57.4729 78.8543 54.6377 79.4849C56.3797 78.327 58.4469 76.5877 60.0869 74.4196Z" fill="url(#paint0_linear_10_21)" stroke="black" stroke-width="0.476662"/>
<g filter="url(#filter1_d_10_21)">
<path d="M22.2814 132.018V116.767H23.4013V123.806H33.8001V116.767H34.9199V132.018H33.8001V124.766H23.4013V132.018H22.2814ZM38.3435 132.018V116.767H44.8494C47.7504 116.767 49.2009 117.951 49.2009 120.318C49.2009 122.053 48.1486 123.294 46.0439 124.04C48.2766 124.417 49.3929 125.608 49.3929 127.613C49.3929 130.55 47.8037 132.018 44.6254 132.018H38.3435ZM44.5081 131.058C46.9683 131.058 48.1984 129.921 48.1984 127.645C48.1984 125.633 46.659 124.627 43.5802 124.627H42.727V123.87C46.2821 123.55 48.0597 122.391 48.0597 120.393C48.0597 118.615 46.9647 117.727 44.7748 117.727H39.4634V131.058H44.5081ZM54.1816 116.767V132.018H53.0618V116.767H54.1816ZM58.1385 132.018V116.767H64.4311C67.1899 116.767 68.5693 117.986 68.5693 120.425C68.5693 122.537 67.0726 124.033 64.0791 124.915L69.2305 132.018H67.6947L62.6286 124.947V124.19C65.7572 123.728 67.3214 122.501 67.3214 120.51C67.3214 118.676 66.2975 117.759 64.2498 117.759H59.2584V132.018H58.1385ZM76.6536 131.058C80.8842 131.058 82.9995 128.698 82.9995 123.976C82.9995 119.81 80.8842 117.727 76.6536 117.727H72.4408V131.058H76.6536ZM71.3209 132.018V116.767H76.7603C81.7375 116.767 84.2261 119.17 84.2261 123.976C84.2261 129.338 81.7019 132.018 76.6536 132.018H71.3209Z" fill="black"/>
</g>
</g>
<defs>
<filter id="filter0_d_10_21" x="0.534164" y="27.7806" width="107.65" height="112.238" filterUnits="userSpaceOnUse" color-interpolation-filters="sRGB">
<feFlood flood-opacity="0" result="BackgroundImageFix"/>
<feColorMatrix in="SourceAlpha" type="matrix" values="0 0 0 0 0 0 0 0 0 0 0 0 0 0 0 0 0 0 127 0" result="hardAlpha"/>
<feOffset dy="4"/>
<feGaussianBlur stdDeviation="2"/>
<feComposite in2="hardAlpha" operator="out"/>
<feColorMatrix type="matrix" values="0 0 0 0 0 0 0 0 0 0 0 0 0 0 0 0 0 0 0.25 0"/>
<feBlend mode="normal" in2="BackgroundImageFix" result="effect1_dropShadow_10_21"/>
<feBlend mode="normal" in="SourceGraphic" in2="effect1_dropShadow_10_21" result="shape"/>
</filter>
<filter id="filter1_d_10_21" x="20.4612" y="113.126" width="65.5851" height="18.8919" filterUnits="userSpaceOnUse" color-interpolation-filters="sRGB">
<feFlood flood-opacity="0" result="BackgroundImageFix"/>
<feColorMatrix in="SourceAlpha" type="matrix" values="0 0 0 0 0 0 0 0 0 0 0 0 0 0 0 0 0 0 127 0" result="hardAlpha"/>
<feOffset dy="-1.82023"/>
<feGaussianBlur stdDeviation="0.910114"/>
<feComposite in2="hardAlpha" operator="out"/>
<feColorMatrix type="matrix" values="0 0 0 0 0 0 0 0 0 0 0 0 0 0 0 0 0 0 0.25 0"/>
<feBlend mode="normal" in2="BackgroundImageFix" result="effect1_dropShadow_10_21"/>
<feBlend mode="normal" in="SourceGraphic" in2="effect1_dropShadow_10_21" result="shape"/>
</filter>
<linearGradient id="paint0_linear_10_21" x1="41.5491" y1="17.1186" x2="50.8162" y2="112.016" gradientUnits="userSpaceOnUse">
<stop offset="0.151042" stop-color="#5157D7" stop-opacity="0.893794"/>
<stop offset="0.304606" stop-color="#7E4BE8" stop-opacity="0.776042"/>
<stop offset="0.657791" stop-color="#5FCCE4" stop-opacity="0.487648"/>
<stop offset="1" stop-color="#DADBE7" stop-opacity="0"/>
</linearGradient>
</defs>
</svg>
