<svg width="34" height="37" viewBox="0 0 34 37" fill="none" xmlns="http://www.w3.org/2000/svg">
<path d="M32.8838 23.1165L29.5 19.7327V15.2502C29.4961 12.1525 28.3438 9.1663 26.2658 6.86897C24.1878 4.57164 21.3318 3.12641 18.25 2.81274V0.250244H15.75V2.81274C12.6682 3.12641 9.8122 4.57164 7.73421 6.86897C5.65622 9.1663 4.50388 12.1525 4.5 15.2502V19.7327L1.11625 23.1165C0.881813 23.3509 0.750071 23.6687 0.75 24.0002V27.7502C0.75 28.0818 0.881696 28.3997 1.11612 28.6341C1.35054 28.8685 1.66848 29.0002 2 29.0002H10.75V29.9715C10.7228 31.5573 11.2818 33.0973 12.3197 34.2965C13.3577 35.4958 14.8017 36.2698 16.375 36.4702C17.244 36.5564 18.1214 36.4598 18.9507 36.1865C19.7801 35.9132 20.5431 35.4694 21.1907 34.8835C21.8382 34.2977 22.356 33.5828 22.7106 32.7848C23.0653 31.9868 23.249 31.1235 23.25 30.2502V29.0002H32C32.3315 29.0002 32.6495 28.8685 32.8839 28.6341C33.1183 28.3997 33.25 28.0818 33.25 27.7502V24.0002C33.2499 23.6687 33.1182 23.3509 32.8838 23.1165ZM20.75 30.2502C20.75 31.2448 20.3549 32.1986 19.6517 32.9019C18.9484 33.6052 17.9946 34.0002 17 34.0002C16.0054 34.0002 15.0516 33.6052 14.3483 32.9019C13.6451 32.1986 13.25 31.2448 13.25 30.2502V29.0002H20.75V30.2502ZM30.75 26.5002H3.25V24.5177L6.63375 21.134C6.86819 20.8996 6.99993 20.5817 7 20.2502V15.2502C7 12.5981 8.05357 10.0545 9.92893 8.17918C11.8043 6.30381 14.3478 5.25024 17 5.25024C19.6522 5.25024 22.1957 6.30381 24.0711 8.17918C25.9464 10.0545 27 12.5981 27 15.2502V20.2502C27.0001 20.5817 27.1318 20.8996 27.3662 21.134L30.75 24.5177V26.5002Z" fill="black"/>
</svg>
