<svg width="31" height="26" viewBox="0 0 31 26" fill="none" xmlns="http://www.w3.org/2000/svg">
<path d="M19.7578 15.7091L28.651 23.9456M2.175 7.96841C1.35426 10.0762 1.66128 12.2864 3.02867 14.1137C4.39605 15.9411 6.71206 17.2363 9.46833 17.7151C12.2279 18.1944 15.2028 17.8161 17.7386 16.6635C20.2745 15.5108 22.1636 13.6782 22.9903 11.5687C23.817 9.45928 23.5136 7.24581 22.1469 5.41527C20.7802 3.58472 18.4621 2.28704 15.7026 1.80769C12.9431 1.32835 9.96817 1.70661 7.43231 2.85926C4.89646 4.01192 3.00738 5.84455 2.18066 7.95399C2.17877 7.95878 2.17688 7.96361 2.175 7.96841Z" stroke="black" stroke-opacity="0.5" stroke-width="2.70981" stroke-linecap="round" stroke-linejoin="round"/>
</svg>
