<svg width="100" height="88" viewBox="0 0 100 88" fill="none" xmlns="http://www.w3.org/2000/svg">
<path d="M83.1391 13.3671L82.5647 13.2488L82.3436 13.2033L82.1252 13.2602C78.0747 14.3155 70.4699 19.548 70.6683 31.8818C70.7812 38.9 66.9467 44.6304 62.3002 48.7773C57.635 52.9408 52.317 55.3579 49.8002 55.8104C49.4078 55.8809 49.0175 56.0007 48.6334 56.1621L47.7801 56.5208L48.0996 57.3895C49.6856 61.7011 51.0494 73.3927 43.8567 85.7427C38.0889 78.4024 29.1176 60.1738 39.4449 37.849L39.8516 36.9699L38.9725 36.5632C38.5034 36.3461 38.093 36.1026 37.6227 35.8235C37.4611 35.7276 37.2924 35.6275 37.1119 35.5228L36.7345 35.3041L36.3263 35.4397L36.3206 35.4413L36.3096 35.4447C31.7537 36.8276 24.5532 37.3717 17.7931 34.5273C11.0913 31.7074 4.6952 25.5054 1.74522 13.1395L1.72296 13.0462L1.68284 12.9591C1.43187 12.4141 1.49483 12.2083 1.50563 12.181L1.50571 12.1808C1.51002 12.1698 1.55385 12.0586 1.89245 11.9447C2.62569 11.6982 3.93255 11.714 5.51947 11.9077C6.90234 12.0765 8.34111 12.3569 9.52298 12.5873C9.65341 12.6127 9.78071 12.6375 9.90447 12.6615C10.5111 12.7791 11.0593 12.8822 11.4493 12.9297C11.6268 12.9513 11.8567 12.9733 12.0613 12.952L12.0616 12.9519C12.1344 12.9444 12.3932 12.9174 12.6341 12.7367C12.7813 12.6262 12.9408 12.4427 13.0084 12.1768C13.0737 11.9197 13.0243 11.6978 12.9688 11.5553L12.9662 11.5487L12.9635 11.5421C11.5881 8.1617 11.0248 4.8088 11.6427 1.67559C20.9214 -0.024842 29.45 2.72562 36.5021 7.18556C43.7182 11.7492 49.3219 18.065 52.4804 23.0569L53.5352 24.724L54.2093 22.87C56.0643 17.7685 58.429 14.3846 60.9868 12.2293C63.5364 10.081 66.3261 9.11218 69.1157 8.91347C74.3319 8.5419 79.5926 10.8669 83.1391 13.3671Z" stroke="white" stroke-width="1.93736"/>
</svg>
