<svg width="66" height="66" viewBox="0 0 66 66" fill="none" xmlns="http://www.w3.org/2000/svg">
<g clip-path="url(#clip0_10_172)">
<path d="M65.7499 32.8747C65.7498 26.5911 63.9489 20.4393 60.5605 15.1476C57.1721 9.856 52.3382 5.64626 46.6312 3.01698C40.9242 0.3877 34.5833 -0.550978 28.3593 0.312115C22.1354 1.17521 16.2891 3.80391 11.513 7.88692C6.73679 11.9699 3.2308 17.3362 1.41019 23.3502C-0.410416 29.3641 -0.469374 35.7739 1.2403 41.8204C2.94998 47.8668 6.35666 53.2967 11.0569 57.4668C15.7572 61.637 21.5541 64.3728 27.7611 65.3503V42.3962H19.3987V32.8747H27.7465V25.6276C27.7465 17.3918 32.6558 12.838 40.1659 12.838C42.6313 12.8725 45.091 13.0873 47.525 13.4809V21.5705H43.3804C39.2941 21.5705 38.0229 24.108 38.0229 26.7039V32.8747H47.1403L45.6792 42.3767H38.0132V65.3503C45.7454 64.1247 52.7867 60.1809 57.871 54.2279C62.9553 48.2749 65.7491 40.7033 65.7499 32.8747Z" fill="white"/>
<path d="M45.6683 42.3971L47.1294 32.895H38.0121V26.7048C38.0121 24.1089 39.2833 21.5714 43.3695 21.5714H47.5142V13.4818C45.0801 13.0882 42.6205 12.8734 40.1551 12.8389C32.645 12.8389 27.7356 17.3927 27.7356 25.6284V32.8756H19.3976V42.3971H27.7454V65.3706C31.1502 65.9031 34.6171 65.9031 38.0219 65.3706V42.3971H45.6683Z" fill="black"/>
</g>
<defs>
<clipPath id="clip0_10_172">
<rect width="65.7499" height="65.7499" fill="white"/>
</clipPath>
</defs>
</svg>
