<svg width="66" height="67" viewBox="0 0 66 67" fill="none" xmlns="http://www.w3.org/2000/svg">
<g clip-path="url(#clip0_10_175)">
<path d="M32.929 66.6088C51.0854 66.6088 65.804 51.8902 65.804 33.7339C65.804 15.5775 51.0854 0.858887 32.929 0.858887C14.7727 0.858887 0.0540657 15.5775 0.0540657 33.7339C0.0540657 51.8902 14.7727 66.6088 32.929 66.6088Z" fill="white"/>
<path d="M32.9289 16.76C38.4568 16.76 39.1094 16.7844 41.2914 16.8818C42.605 16.8977 43.9063 17.1382 45.139 17.5928C46.0352 17.9286 46.8466 18.4573 47.5157 19.1416C48.2032 19.81 48.7324 20.6237 49.0645 21.5232C49.5212 22.7536 49.7617 24.0536 49.7756 25.3659C49.8778 27.5479 49.8973 28.2054 49.8973 33.7332C49.8973 39.2611 49.8973 39.9137 49.7756 42.0957C49.7617 43.408 49.5212 44.708 49.0645 45.9384C48.7202 46.8309 48.1932 47.6417 47.5172 48.3185C46.8412 48.9954 46.0311 49.5234 45.139 49.8688C43.9063 50.3234 42.605 50.5639 41.2914 50.5798C39.1094 50.6772 38.4568 50.7016 32.9289 50.7016C27.4011 50.7016 26.7485 50.6772 24.5665 50.5798C23.2529 50.5639 21.9516 50.3234 20.7189 49.8688C19.8268 49.5234 19.0167 48.9954 18.3407 48.3185C17.6647 47.6417 17.1376 46.8309 16.7934 45.9384C16.3367 44.708 16.0962 43.408 16.0823 42.0957C15.9801 39.9137 15.9606 39.2562 15.9606 33.7332C15.9606 28.2102 15.9606 27.5479 16.0823 25.3659C16.0962 24.0536 16.3367 22.7536 16.7934 21.5232C17.1255 20.6237 17.6547 19.81 18.3422 19.1416C19.0113 18.4573 19.8227 17.9286 20.7189 17.5928C21.9516 17.1382 23.2529 16.8977 24.5665 16.8818C26.7485 16.7844 27.4011 16.76 32.9289 16.76ZM32.9289 13.0342C27.3085 13.0342 26.5975 13.0342 24.3961 13.1559C22.6777 13.1946 20.9782 13.5239 19.3698 14.13C17.9943 14.661 16.7451 15.4739 15.7025 16.5165C14.6599 17.5591 13.8469 18.8083 13.316 20.1839C12.7081 21.7901 12.3786 23.4882 12.3419 25.2052C12.2396 27.4164 12.2153 28.1274 12.2153 33.743C12.2153 39.3585 12.2153 40.0744 12.3419 42.2759C12.3794 43.9944 12.7088 45.694 13.316 47.3021C13.848 48.6764 14.6614 49.9244 15.7039 50.9661C16.7464 52.0078 17.9951 52.8201 19.3698 53.3511C20.9776 53.9595 22.6774 54.289 24.3961 54.3251C26.6023 54.4274 27.3183 54.4518 32.9289 54.4518C38.5396 54.4518 39.2604 54.4274 41.4618 54.3251C43.1805 54.289 44.8803 53.9595 46.4881 53.3511C47.8628 52.8201 49.1115 52.0078 50.154 50.9661C51.1965 49.9244 52.0099 48.6764 52.5419 47.3021C53.1491 45.694 53.4785 43.9944 53.516 42.2759C53.6183 40.0696 53.6426 39.3536 53.6426 33.743C53.6426 28.1323 53.6426 27.4115 53.516 25.2052C53.4793 23.4882 53.1498 21.7901 52.5419 20.1839C52.011 18.8083 51.198 17.5591 50.1554 16.5165C49.1128 15.4739 47.8636 14.661 46.4881 14.13C44.8797 13.5239 43.1802 13.1946 41.4618 13.1559C39.2556 13.0537 38.5396 13.0342 32.9289 13.0342Z" fill="black"/>
<path d="M32.9293 23.1021C30.8263 23.1011 28.7702 23.7238 27.0212 24.8915C25.2721 26.0592 23.9086 27.7193 23.1032 29.662C22.2977 31.6046 22.0865 33.7426 22.4961 35.8053C22.9058 37.868 23.918 39.7629 25.4048 41.2503C26.8915 42.7377 28.7859 43.7508 30.8484 44.1614C32.911 44.5721 35.049 44.3618 36.992 43.5572C38.9351 42.7526 40.5958 41.3899 41.7643 39.6414C42.9328 37.8929 43.5565 35.8371 43.5565 33.7341C43.5571 32.3381 43.2827 30.9556 42.7489 29.6657C42.2151 28.3758 41.4325 27.2037 40.4456 26.2164C39.4587 25.2291 38.2869 24.4458 36.9973 23.9115C35.7076 23.3771 34.3253 23.1021 32.9293 23.1021ZM32.9293 40.6354C31.5642 40.6354 30.2297 40.2305 29.0947 39.472C27.9596 38.7134 27.0751 37.6353 26.5529 36.3739C26.0307 35.1126 25.8943 33.7247 26.161 32.3859C26.4277 31.047 27.0854 29.8173 28.0511 28.8524C29.0167 27.8874 30.2469 27.2305 31.5859 26.9648C32.925 26.699 34.3128 26.8364 35.5737 27.3595C36.8347 27.8826 37.9122 28.7679 38.6699 29.9034C39.4277 31.039 39.8316 32.3738 39.8306 33.7389C39.828 35.5676 39.0998 37.3205 37.8058 38.6126C36.5119 39.9047 34.758 40.6305 32.9293 40.6305V40.6354Z" fill="black"/>
<path d="M43.9795 25.167C45.3513 25.167 46.4634 24.0549 46.4634 22.6831C46.4634 21.3113 45.3513 20.1992 43.9795 20.1992C42.6077 20.1992 41.4956 21.3113 41.4956 22.6831C41.4956 24.0549 42.6077 25.167 43.9795 25.167Z" fill="black"/>
</g>
<defs>
<clipPath id="clip0_10_175">
<rect width="65.7499" height="65.7499" fill="white" transform="translate(0.0541306 0.858887)"/>
</clipPath>
</defs>
</svg>
