<svg width="651" height="864" viewBox="0 0 651 864" fill="none" xmlns="http://www.w3.org/2000/svg">
<path d="M0.499915 8.50018C28.9999 8.50018 18.5789 88.999 77.7832 138.381C116.946 171.046 253.856 137.894 230.014 226.718C170.13 449.823 262.04 404.856 339.031 393.329C463.929 374.628 542.39 337.321 622.522 572.956C637.5 617 647.931 645 644.5 680C633.54 791.818 630.5 780 594.5 780" stroke="#FE9ECC" stroke-width="10.3513"/>
<path d="M-0.000162938 91.9999C30.9998 91.9999 197.815 29.1488 183.575 256.612C169.335 484.076 242.113 426.205 307.552 403.321C413.71 366.199 577.524 289.839 586.526 536.495C594.241 747.888 425.362 541.477 480.5 736C485.906 755.073 555 780 594.5 780" stroke="#4A5EA3" stroke-width="10.3513"/>
</svg>
