<svg width="35" height="35" viewBox="0 0 35 35" fill="none" xmlns="http://www.w3.org/2000/svg">
<path d="M17.5 -1.72853e-06C22.1413 -1.72853e-06 26.5925 1.84374 29.8744 5.12563C33.1563 8.40752 35 12.8587 35 17.5C35 22.1413 33.1563 26.5925 29.8744 29.8744C26.5925 33.1563 22.1413 35 17.5 35C12.8587 35 8.40752 33.1563 5.12563 29.8744C1.84375 26.5925 0 22.1413 0 17.5C0 12.8587 1.84375 8.40752 5.12563 5.12563C8.40752 1.84374 12.8587 -1.72853e-06 17.5 -1.72853e-06ZM9.84375 16.4062C9.55367 16.4062 9.27547 16.5215 9.07035 16.7266C8.86524 16.9317 8.75 17.2099 8.75 17.5C8.75 17.7901 8.86524 18.0683 9.07035 18.2734C9.27547 18.4785 9.55367 18.5937 9.84375 18.5937H22.5159L17.8194 23.2881C17.614 23.4935 17.4986 23.7721 17.4986 24.0625C17.4986 24.3529 17.614 24.6315 17.8194 24.8369C18.0248 25.0423 18.3033 25.1576 18.5938 25.1576C18.8842 25.1576 19.1627 25.0423 19.3681 24.8369L25.9306 18.2744C26.0325 18.1728 26.1133 18.0521 26.1684 17.9192C26.2236 17.7863 26.252 17.6439 26.252 17.5C26.252 17.3561 26.2236 17.2137 26.1684 17.0808C26.1133 16.9479 26.0325 16.8272 25.9306 16.7256L19.3681 10.1631C19.1627 9.95775 18.8842 9.84237 18.5938 9.84237C18.3033 9.84237 18.0248 9.95775 17.8194 10.1631C17.614 10.3685 17.4986 10.6471 17.4986 10.9375C17.4986 11.2279 17.614 11.5065 17.8194 11.7119L22.5159 16.4062H9.84375Z" fill="#0C71CE"/>
</svg>
