<svg width="64" height="64" viewBox="0 0 64 64" fill="none" xmlns="http://www.w3.org/2000/svg">
<path d="M58.8 2.62986e-06H17.2C14.3322 2.62986e-06 12 2.3244 12 5.1792V36.4208C12 39.2756 14.3322 41.6 17.2 41.6H25V52L41.5126 41.6H58.8C61.6678 41.6 64 39.2756 64 36.4208V5.1792C63.9959 3.80326 63.446 2.48516 62.4711 1.51417C61.4962 0.543176 60.1759 -0.0013809 58.8 2.62986e-06Z" fill="white"/>
<path d="M52.4 5H7.6C4.5116 5 2 7.5032 2 10.5776V44.2224C2 47.2968 4.5116 49.8 7.6 49.8H16V55.4V61L33.7828 49.8H52.4C55.4884 49.8 58 47.2968 58 44.2224V10.5776C57.9955 9.09582 57.4034 7.67632 56.3535 6.63064C55.3036 5.58496 53.8818 4.99851 52.4 5Z" fill="white" stroke="#0C71CE" stroke-width="3"/>
</svg>
