<svg width="66" height="66" viewBox="0 0 66 66" fill="none" xmlns="http://www.w3.org/2000/svg">
<path d="M32.5543 64.75C49.9212 64.75 63.9999 50.6713 63.9999 33.3044C63.9999 15.9375 49.9212 1.85889 32.5543 1.85889C15.1874 1.85889 1.10867 15.9375 1.10867 33.3044C1.10867 50.6713 15.1874 64.75 32.5543 64.75Z" fill="white" stroke="white" stroke-width="2.18473" stroke-miterlimit="10"/>
<path d="M26.2014 52.1255C41.5748 52.1255 49.9603 39.4028 49.9603 28.3665C49.9603 28.0078 49.9603 27.6444 49.9603 27.2904C51.5938 26.1075 53.0041 24.6437 54.1251 22.9671C52.6009 23.6394 50.9854 24.0821 49.3314 24.2809C51.0746 23.2362 52.3792 21.5939 53.0024 19.6595C51.3632 20.6313 49.5703 21.3166 47.7009 21.686C46.555 20.4659 45.0691 19.6182 43.4356 19.2528C41.8022 18.8873 40.0967 19.0211 38.5402 19.6367C36.9837 20.2522 35.648 21.3212 34.7064 22.7051C33.7647 24.0889 33.2605 25.7237 33.2592 27.3975C33.2565 28.0388 33.3284 28.6782 33.4735 29.3029C30.1536 29.1364 26.9058 28.2736 23.9411 26.7704C20.9763 25.2671 18.3608 23.1571 16.2646 20.5773C15.1956 22.4155 14.8679 24.5922 15.3483 26.6637C15.8287 28.7351 17.0811 30.5454 18.8501 31.7254C17.5239 31.6848 16.2267 31.327 15.0673 30.6818C15.0649 30.7175 15.0649 30.7533 15.0673 30.789C15.0687 32.7166 15.7365 34.5844 16.9573 36.0761C18.1782 37.5678 19.8772 38.5917 21.7664 38.9742C21.0498 39.1694 20.3103 39.2681 19.5675 39.2677C19.0408 39.2658 18.5153 39.2159 17.9976 39.1186C18.5307 40.7772 19.5692 42.2276 20.9675 43.2668C22.3659 44.306 24.0542 44.8819 25.7961 44.9139C22.8392 47.2372 19.1864 48.4975 15.426 48.4917C14.7613 48.4906 14.0971 48.4518 13.4368 48.3753C17.2544 50.8272 21.6968 52.129 26.234 52.1255" fill="black"/>
</svg>
